<svg width="76" height="76" viewBox="0 0 76 76" fill="none" xmlns="http://www.w3.org/2000/svg">
<circle cx="52" cy="52" r="24" fill="#EBEDF0"/>
<path d="M57 9H15C11.6863 9 9 11.6863 9 15V57C9 60.3137 11.6863 63 15 63H57C60.3137 63 63 60.3137 63 57V15C63 11.6863 60.3137 9 57 9Z" stroke="#3EC26E" stroke-width="3" stroke-linejoin="round"/>
<path d="M51 30H21C19.3431 30 18 31.3431 18 33V51C18 52.6569 19.3431 54 21 54H51C52.6569 54 54 52.6569 54 51V33C54 31.3431 52.6569 30 51 30Z" stroke="#3EC26E" stroke-width="3" stroke-linejoin="round"/>
<path d="M18 21H24" stroke="#3EC26E" stroke-width="3" stroke-linejoin="round"/>
<path d="M33 21H39" stroke="#3EC26E" stroke-width="3" stroke-linejoin="round"/>
<path d="M48 21H54" stroke="#3EC26E" stroke-width="3" stroke-linejoin="round"/>
<path d="M18 39H54" stroke="#3EC26E" stroke-width="3" stroke-linejoin="round"/>
</svg>
