<svg width="76" height="76" viewBox="0 0 76 76" fill="none" xmlns="http://www.w3.org/2000/svg">
<circle cx="52" cy="52" r="24" fill="#EBEDF0"/>
<path d="M15 39H57V57C57 58.5913 56.3679 60.1174 55.2426 61.2426C54.1174 62.3679 52.5913 63 51 63H21C19.4087 63 17.8826 62.3679 16.7574 61.2426C15.6321 60.1174 15 58.5913 15 57V39Z" stroke="#3EC26E" stroke-width="3" stroke-miterlimit="10"/>
<path d="M9 39H63" stroke="#3EC26E" stroke-width="3" stroke-miterlimit="10"/>
<path d="M36 21C39.3137 21 42 18.3137 42 15C42 11.6863 39.3137 9 36 9C32.6863 9 30 11.6863 30 15C30 18.3137 32.6863 21 36 21Z" stroke="#3EC26E" stroke-width="3" stroke-miterlimit="10"/>
<path d="M48 39.5147V33C48 31.4087 47.3679 29.8826 46.2426 28.7574C45.1174 27.6321 43.5913 27 42 27H30C28.4087 27 26.8826 27.6321 25.7574 28.7574C24.6321 29.8826 24 31.4087 24 33V39.5147" stroke="#3EC26E" stroke-width="3" stroke-miterlimit="10"/>
</svg>
