<svg width="76" height="76" viewBox="0 0 76 76" fill="none" xmlns="http://www.w3.org/2000/svg">
<circle cx="52" cy="52" r="24" fill="#EBEDF0"/>
<path d="M54 57V39C54 35.6863 51.3137 33 48 33H15C11.6863 33 9 35.6863 9 39V57C9 60.3137 11.6863 63 15 63H48C51.3137 63 54 60.3137 54 57Z" stroke="#3EC26E" stroke-width="3" stroke-miterlimit="10"/>
<path d="M54 45.9601C55.3546 46.0065 56.685 45.5929 57.7745 44.7867C58.864 43.9804 59.6484 42.8291 60 41.5201L64.56 24.0001C64.9728 22.4645 64.7591 20.8279 63.966 19.4498C63.1728 18.0716 61.8651 17.0647 60.33 16.6501L28.44 8.2501C27.6737 8.03216 26.8717 7.96902 26.0808 8.06435C25.2898 8.15968 24.5258 8.41157 23.8332 8.80532C23.1406 9.19908 22.5334 9.72682 22.047 10.3577C21.5606 10.9887 21.2046 11.7102 21 12.4801L16.44 30.0001C16.1631 30.9809 16.1631 32.0193 16.44 33.0001" stroke="#3EC26E" stroke-width="3" stroke-miterlimit="10"/>
<path d="M18 42V54" stroke="#3EC26E" stroke-width="3" stroke-miterlimit="10"/>
</svg>
