<svg width="76" height="76" viewBox="0 0 76 76" fill="none" xmlns="http://www.w3.org/2000/svg">
<circle cx="52" cy="52" r="24" fill="#EBEDF0"/>
<path d="M24 42H48C49.5913 42 51.1174 42.6321 52.2426 43.7574C53.3679 44.8826 54 46.4087 54 48V63H18V48C18 46.4087 18.6321 44.8826 19.7574 43.7574C20.8826 42.6321 22.4087 42 24 42Z" stroke="#3EC26E" stroke-width="3" stroke-linejoin="round"/>
<path d="M30 51H42C42.7956 51 43.5587 51.3161 44.1213 51.8787C44.6839 52.4413 45 53.2044 45 54V63H27V54C27 53.2044 27.3161 52.4413 27.8787 51.8787C28.4413 51.3161 29.2044 51 30 51Z" stroke="#3EC26E" stroke-width="3" stroke-linejoin="round"/>
<path d="M21 21H51" stroke="#3EC26E" stroke-width="3" stroke-linejoin="round"/>
<path d="M21 12V28.3945C21 28.8883 21.1219 29.3746 21.355 29.81C21.588 30.2455 21.925 30.6167 22.3359 30.8906L28.6641 35.1094C29.075 35.3833 29.412 35.7545 29.645 36.19C29.8781 36.6254 30 37.1117 30 37.6055V42H42V37.6055C42 37.1117 42.1219 36.6254 42.355 36.19C42.588 35.7545 42.925 35.3833 43.3359 35.1094L49.6641 30.8906C50.075 30.6167 50.412 30.2455 50.645 29.81C50.8781 29.3746 51 28.8883 51 28.3945V12C51 11.2044 50.6839 10.4413 50.1213 9.87868C49.5587 9.31607 48.7956 9 48 9H24C23.2044 9 22.4413 9.31607 21.8787 9.87868C21.3161 10.4413 21 11.2044 21 12Z" stroke="#3EC26E" stroke-width="3" stroke-linejoin="round"/>
<path d="M36 51V57" stroke="#3EC26E" stroke-width="3" stroke-linejoin="round"/>
</svg>
