<svg width="76" height="76" viewBox="0 0 76 76" fill="none" xmlns="http://www.w3.org/2000/svg">
<circle cx="52" cy="52" r="24" fill="#EBEDF0"/>
<path d="M18 39H54" stroke="#3EC26E" stroke-width="3" stroke-linejoin="round"/>
<path d="M24 66V54.0759C24 52.8992 23.654 51.7485 23.0051 50.767C22.3562 49.7855 21.4331 49.0164 20.3505 48.5554L15.6495 46.5539C14.5669 46.0929 13.6437 45.3238 12.9948 44.3423C12.346 43.3607 12 42.2101 12 41.0334V30" stroke="#3EC26E" stroke-width="3" stroke-linejoin="round"/>
<path d="M12 24C14.4853 24 16.5 21.9853 16.5 19.5C16.5 17.0147 14.4853 15 12 15C9.51472 15 7.5 17.0147 7.5 19.5C7.5 21.9853 9.51472 24 12 24Z" stroke="#3EC26E" stroke-width="3" stroke-linejoin="round"/>
<path d="M48 66V54.0759C48 52.8992 48.346 51.7485 48.9949 50.767C49.6438 49.7855 50.5669 49.0164 51.6495 48.5554L56.3505 46.5539C57.4331 46.0929 58.3563 45.3238 59.0052 44.3423C59.654 43.3607 60 42.2101 60 41.0334V30" stroke="#3EC26E" stroke-width="3" stroke-linejoin="round"/>
<path d="M60 24C62.4853 24 64.5 21.9853 64.5 19.5C64.5 17.0147 62.4853 15 60 15C57.5147 15 55.5 17.0147 55.5 19.5C55.5 21.9853 57.5147 24 60 24Z" stroke="#3EC26E" stroke-width="3" stroke-linejoin="round"/>
<path d="M36 18C38.4853 18 40.5 15.9853 40.5 13.5C40.5 11.0147 38.4853 9 36 9C33.5147 9 31.5 11.0147 31.5 13.5C31.5 15.9853 33.5147 18 36 18Z" stroke="#3EC26E" stroke-width="3" stroke-linejoin="round"/>
<path d="M30 25.5H42C42.7956 25.5 43.5587 25.8161 44.1213 26.3787C44.6839 26.9413 45 27.7044 45 28.5V39H27V28.5C27 27.7044 27.3161 26.9413 27.8787 26.3787C28.4413 25.8161 29.2044 25.5 30 25.5Z" stroke="#3EC26E" stroke-width="3" stroke-linejoin="round"/>
<path d="M36 39V66" stroke="#3EC26E" stroke-width="3" stroke-linejoin="round"/>
</svg>
