<svg width="76" height="76" viewBox="0 0 76 76" fill="none" xmlns="http://www.w3.org/2000/svg">
<circle cx="52" cy="52" r="24" fill="#EBEDF0"/>
<path d="M47.9999 54C53.9999 48 57.5999 38.88 57.5999 27H14.3999C14.3999 38.88 17.9999 48 23.9999 54" stroke="#3EC26E" stroke-width="3" stroke-linejoin="round"/>
<path d="M37.5 6C37.5 13.5 34.5 13.5 34.5 21" stroke="#3EC26E" stroke-width="3" stroke-linejoin="round"/>
<path d="M49.5 9.00024C49.5 15.0002 46.5 15.0002 46.5 21.0002" stroke="#3EC26E" stroke-width="3" stroke-linejoin="round"/>
<path d="M25.5 9.00024C25.5 15.0002 22.5 15.0002 22.5 21.0002" stroke="#3EC26E" stroke-width="3" stroke-linejoin="round"/>
<path d="M50.6587 63C54.5974 60.9947 57.8495 57.8614 60 54H12C14.1505 57.8614 17.4026 60.9947 21.3413 63H50.6587Z" stroke="#3EC26E" stroke-width="3" stroke-linejoin="round"/>
</svg>
