<svg width="48" height="61" viewBox="0 0 48 61" fill="none" xmlns="http://www.w3.org/2000/svg">
<circle cx="24" cy="24" r="24" fill="#00A550"/>
<path d="M24 61L18 45H30L24 61Z" fill="#00A550"/>
<path fill-rule="evenodd" clip-rule="evenodd" d="M24 43C34.4934 43 43 34.4934 43 24C43 13.5066 34.4934 5 24 5C13.5066 5 5 13.5066 5 24C5 34.4934 13.5066 43 24 43ZM24.0001 40.9644C33.3692 40.9644 40.9644 33.3692 40.9644 24.0001C40.9644 14.631 33.3692 7.0358 24.0001 7.0358C14.631 7.0358 7.0358 14.631 7.0358 24.0001C7.0358 33.3692 14.631 40.9644 24.0001 40.9644Z" fill="white"/>
<path fill-rule="evenodd" clip-rule="evenodd" d="M21.6252 27.0535C22.3872 26.8319 23.1825 26.7145 24.0003 26.7145C24.818 26.7145 25.6132 26.8319 26.3752 27.0534V21.625C25.6132 21.4035 24.818 21.2861 24.0003 21.2861C23.1825 21.2861 22.3872 21.4035 21.6252 21.6251V27.0535Z" fill="white"/>
<path fill-rule="evenodd" clip-rule="evenodd" d="M21.6252 11.7853C19.8065 12.0056 18.0912 12.4751 16.5361 13.1483V34.905C18.0912 35.5783 19.8065 36.0477 21.6252 36.2681V11.7853ZM26.3752 36.2682C28.1939 36.0479 29.9095 35.5785 31.4647 34.9052V13.1481C29.9095 12.4749 28.1939 12.0054 26.3752 11.7852V36.2682Z" fill="white"/>
</svg>
